<svg width="32" height="32" viewBox="0 0 32 32" fill="none" xmlns="http://www.w3.org/2000/svg">
    <path fill-rule="evenodd" clip-rule="evenodd" d="M16 30.6667C7.8998 30.6667 1.33331 24.1002 1.33331 16C1.33331 7.89983 7.8998 1.33334 16 1.33334C24.1002 1.33334 30.6666 7.89983 30.6666 16C30.6666 24.1002 24.1002 30.6667 16 30.6667ZM16 28C22.6274 28 28 22.6274 28 16C28 9.37259 22.6274 4.00001 16 4.00001C9.37256 4.00001 3.99998 9.37259 3.99998 16C3.99998 22.6274 9.37256 28 16 28ZM22.6666 14.6667H17.3333V9.33334H14.6666V14.6667H9.33331V17.3333H14.6666V22.6667H17.3333V17.3333H22.6666V14.6667Z" fill="black"/>
</svg>
